PathFileType	4	(X/Y/Z)	/Users/itak/Documents/Research/Walk-IL/dataset/trc/00029_00004.trc
DataRate	CameraRate	NumFrames	NumMarkers	Units	OrigDataRate	OrigDataStartFrame	OrigNumFrames
100.000000	100.000000	4	53	mm	100.000000	95	767
Frame#	Time	RPSI			LPSI			L3			STRN			T10			C7			CLAV			RBAK			LBAK			LSHO			LUPA			LAEL			LAOL			LWTS			LWPS			LFRA			LIFD			LHPS			LHTS			RSHO			RUPA			RAEL			RAOL			RWTS			RWPS			RFRA			RIFD			RHTS			RHPS			RBHD			LFHD			RFHD			LBHD			LHIP			RHIP			RASI			LASI			LKNE			LTHI			LANK			LTIP			LTOE			LMT1			LMT5			LHEE			RKNE			RTHI			RANK			RTIP			RTOE			RMT1			RMT5			RHEE			
		X1	Y1	Z1	X2	Y2	Z2	X3	Y3	Z3	X4	Y4	Z4	X5	Y5	Z5	X6	Y6	Z6	X7	Y7	Z7	X8	Y8	Z8	X9	Y9	Z9	X10	Y10	Z10	X11	Y11	Z11	X12	Y12	Z12	X13	Y13	Z13	X14	Y14	Z14	X15	Y15	Z15	X16	Y16	Z16	X17	Y17	Z17	X18	Y18	Z18	X19	Y19	Z19	X20	Y20	Z20	X21	Y21	Z21	X22	Y22	Z22	X23	Y23	Z23	X24	Y24	Z24	X25	Y25	Z25	X26	Y26	Z26	X27	Y27	Z27	X28	Y28	Z28	X29	Y29	Z29	X30	Y30	Z30	X31	Y31	Z31	X32	Y32	Z32	X33	Y33	Z33	X34	Y34	Z34	X35	Y35	Z35	X36	Y36	Z36	X37	Y37	Z37	X38	Y38	Z38	X39	Y39	Z39	X40	Y40	Z40	X41	Y41	Z41	X42	Y42	Z42	X43	Y43	Z43	X44	Y44	Z44	X45	Y45	Z45	X46	Y46	Z46	X47	Y47	Z47	X48	Y48	Z48	X49	Y49	Z49	X50	Y50	Z50	X51	Y51	Z51	X52	Y52	Z52	X53	Y53	Z53	

96	0.9500000000000001	454.8546447753906	1075.572265625	1023.901245117188	479.4500732421875	1067.072631835938	1186.427124023438	473.8278503417969	1128.397705078125	1114.904418945312	253.2224884033203	1314.865966796875	1136.984619140625	501.197509765625	1271.577392578125	1120.592041015625	449.7272033691406	1538.696166992188	1142.913452148438	294.1763305664062	1441.029418945312	1141.716918945312	500.86181640625	1403.215698242188	1056.397705078125	472.8662109375	1495.96435546875	1237.631591796875	374.3171691894531	1498.865234375	1315.687866210938	414.7220458984375	1374.113891601562	1389.655395507812	428.6980895996094	1157.131713867188	1411.093627929688	478.8079528808594	1148.6826171875	1318.048217773438	338.5049133300781	905.3464965820312	1352.120361328125	417.6436767578125	889.9620971679688	1390.435791015625	417.4348754882812	1040.588745117188	1415.205200195312	313.0948791503906	721.015869140625	1326.427978515625	384.7246398925781	800.04541015625	1387.133178710938	318.3239135742188	810.7583618164062	1361.416015625	368.0806579589844	1524.8408203125	970.7586669921875	380.0884399414062	1457.341064453125	896.9075927734375	417.0010375976562	1188.833984375	863.0230712890625	421.8810424804688	1159.765014648438	958.6874389648438	282.9668273925781	931.020263671875	894.8616943359375	344.820068359375	915.4783935546875	828.3056030273438	402.7724609375	1112.514892578125	846.7315063476562	264.2798767089844	745.1915283203125	911.8192749023438	246.6479034423828	822.3187255859375	882.3916625976562	301.1516723632812	815.40771484375	830.5106811523438	360.6137390136719	1727.97802734375	1206.750854492188	193.7993927001953	1703.341430664062	1068.306274414062	185.0899505615234	1705.714599609375	1166.293701171875	367.8008728027344	1720.507080078125	1062.703247070312	401.5649719238281	959.1661987304688	1304.8291015625	333.2869262695312	956.6399536132812	938.1303100585938	239.3186187744141	987.7028198242188	1024.780639648438	275.6115112304688	1002.581298828125	1257.301513671875	371.1025695800781	515.4300537109375	1250.419677734375	394.9684143066406	651.9945678710938	1286.95263671875	478.0144348144531	39.92403793334961	1227.049560546875	456.9832153320312	285.4545593261719	1253.824096679688	253.2343597412109	39.19006729125977	1179.278442382812	311.13427734375	48.2833251953125	1159.486328125	356.2383422851562	37.64731216430664	1258.360717773438	542.6884155273438	48.07273483276367	1169.27197265625	361.0475463867188	521.9143676757812	985.7335815429688	322.2895812988281	788.4904174804688	941.722900390625	488.9244995117188	44.51495361328125	1000.726013183594	391.8246765136719	400.8152770996094	983.2049560546875	259.9342346191406	41.92543411254883	1055.224853515625	325.0577392578125	44.32482147216797	1081.898315429688	338.268798828125	42.82276153564453	987.0924682617188	546.6639404296875	46.52787780761719	1042.789672851562	
97	0.96	454.8563232421875	1075.50927734375	1024.044555664062	479.4418334960938	1066.953369140625	1186.580444335938	473.7369995117188	1128.331787109375	1115.056884765625	253.208984375	1314.825439453125	1137.297485351562	501.1121520996094	1271.534912109375	1120.72509765625	449.6970520019531	1538.65380859375	1143.0205078125	294.214599609375	1440.941162109375	1141.990112304688	500.7528381347656	1403.194091796875	1056.470703125	472.9669189453125	1495.891235351562	1237.705688476562	374.4249267578125	1498.720458984375	1315.878540039062	415.0795288085938	1373.994384765625	1389.75244140625	429.3052978515625	1156.985595703125	1411.048828125	479.2522583007812	1148.630737304688	1317.891723632812	339.24609375	905.13720703125	1352.03662109375	418.4430541992188	889.8096313476562	1390.206909179688	418.1502380371094	1040.433959960938	1415.07421875	313.8541564941406	720.7366943359375	1326.256103515625	385.7104187011719	799.93896484375	1386.943237304688	319.2092895507812	810.573486328125	1361.300903320312	367.90869140625	1524.764404296875	970.960693359375	379.8452453613281	1457.286743164062	897.116943359375	416.6987609863281	1188.797729492188	863.13818359375	421.6737976074219	1159.716918945312	958.76611328125	282.4989929199219	931.09033203125	895.1034545898438	344.2737121582031	915.4874267578125	828.5154418945312	402.4373474121094	1112.482055664062	846.852294921875	263.6295471191406	745.273193359375	912.1229248046875	246.0265045166016	822.4490966796875	882.6668701171875	300.5178527832031	815.474609375	830.7791137695312	360.2982788085938	1727.9580078125	1207.03759765625	193.4645538330078	1703.017822265625	1068.721557617188	184.7422332763672	1705.334594726562	1166.677001953125	367.388427734375	1720.548095703125	1062.99267578125	401.5639343261719	959.1138916015625	1305.017700195312	333.143310546875	956.62744140625	938.3179321289062	239.2123870849609	987.720703125	1024.95166015625	275.6599426269531	1002.476623535156	1257.442016601562	371.1752014160156	515.4317016601562	1250.408203125	394.87890625	651.8870849609375	1287.062377929688	478.0256652832031	39.89813232421875	1227.100463867188	456.8677673339844	285.3449401855469	1253.8935546875	253.291748046875	39.21112823486328	1179.260620117188	311.1470031738281	48.2833251953125	1159.467163085938	356.2462158203125	37.66215896606445	1258.354248046875	542.7310180664062	47.95331192016602	1169.328491210938	360.7575073242188	521.8862915039062	985.8282470703125	322.078857421875	788.4814453125	941.8256225585938	488.9454956054688	44.48185729980469	1000.756530761719	391.5902709960938	400.7281799316406	983.3145141601562	259.9533996582031	41.98631286621094	1055.1962890625	325.0639343261719	44.32872009277344	1081.909301757812	338.2774047851562	42.85882186889648	987.1073608398438	546.6961059570312	46.46318435668945	1042.845581054688	
98	0.97	454.8589782714844	1075.4482421875	1024.191528320312	479.4508361816406	1066.8427734375	1186.731201171875	473.6424865722656	1128.267822265625	1115.211059570312	253.1752319335938	1314.783203125	1137.597045898438	501.0259094238281	1271.496704101562	1120.860229492188	449.6434936523438	1538.611938476562	1143.128540039062	294.2364807128906	1440.859375	1142.251220703125	500.6334838867188	1403.173583984375	1056.549438476562	473.0187377929688	1495.82373046875	1237.782470703125	374.4971008300781	1498.57568359375	1316.069091796875	415.4021301269531	1373.886962890625	1389.857543945312	429.8812561035156	1156.855590820312	1411.0283203125	479.6978454589844	1148.591064453125	1317.763305664062	339.9311218261719	904.9337158203125	1351.987426757812	419.1833801269531	889.6690063476562	1390.0126953125	418.8298645019531	1040.292724609375	1414.975463867188	314.6456298828125	720.4933471679688	1326.148315429688	386.5967102050781	799.829345703125	1386.788818359375	320.0641479492188	810.4030151367188	1361.214599609375	367.7322387695312	1524.685302734375	971.1566772460938	379.5950317382812	1457.226318359375	897.3238525390625	416.3998718261719	1188.764282226562	863.2537231445312	421.4771728515625	1159.669067382812	958.8395385742188	282.0700988769531	931.1461791992188	895.3352661132812	343.7452392578125	915.4916381835938	828.71240234375	402.1148681640625	1112.447998046875	846.9669799804688	262.9892578125	745.3594970703125	912.4097900390625	245.4422149658203	822.57470703125	882.9483642578125	299.9189453125	815.5383911132812	831.0403442382812	359.96044921875	1727.921630859375	1207.34130859375	193.1502532958984	1702.720458984375	1069.092041015625	184.4081268310547	1704.983764648438	1167.028564453125	366.9908447265625	1720.580688476562	1063.295654296875	401.530029296875	959.0709228515625	1305.21826171875	333.0038757324219	956.6126098632812	938.5037231445312	239.1175537109375	987.7272338867188	1025.1259765625	275.7330627441406	1002.375671386719	1257.60107421875	371.2139892578125	515.4605102539062	1250.392822265625	394.7565002441406	651.7842407226562	1287.19189453125	478.0446472167969	39.86610412597656	1227.165161132812	456.7259216308594	285.2372436523438	1254.02392578125	253.3638305664062	39.24435806274414	1179.241333007812	311.1642150878906	48.28767395019531	1159.44482421875	356.2526550292969	37.67549896240234	1258.345581054688	542.7735595703125	47.8309440612793	1169.385131835938	360.3702697753906	521.8440551757812	985.915771484375	321.8607177734375	788.4634399414062	941.921142578125	488.9768981933594	44.43262481689453	1000.784240722656	391.2401733398438	400.6082153320312	983.4383544921875	259.9840087890625	42.06373596191406	1055.161865234375	325.0812683105469	44.34371566772461	1081.921875	338.2980651855469	42.90574645996094	987.1227416992188	546.7321166992188	46.36571884155273	1042.9228515625	
99	0.98	454.8531494140625	1075.38671875	1024.333374023438	479.4861145019531	1066.7373046875	1186.869384765625	473.5470886230469	1128.20654296875	1115.35693359375	253.1130981445312	1314.738647460938	1137.876098632812	500.937255859375	1271.464111328125	1120.988525390625	449.5584106445312	1538.5712890625	1143.236450195312	294.2279663085938	1440.786987304688	1142.500366210938	500.4965515136719	1403.156127929688	1056.629150390625	473.0173034667969	1495.763671875	1237.860473632812	374.5370483398438	1498.433227539062	1316.261108398438	415.687744140625	1373.792114257812	1389.971069335938	430.4175109863281	1156.74267578125	1411.033203125	480.1364135742188	1148.563720703125	1317.665283203125	340.5606689453125	904.7368774414062	1351.97607421875	419.8621520996094	889.5414428710938	1389.857055664062	419.4663696289062	1040.165771484375	1414.913696289062	315.4631958007812	720.2841796875	1326.09326171875	387.3700866699219	799.7071533203125	1386.662963867188	320.8792419433594	810.2326049804688	1361.1591796875	367.5364685058594	1524.607543945312	971.3466796875	379.3296203613281	1457.161987304688	897.5264282226562	416.1087951660156	1188.737548828125	863.3661499023438	421.2902526855469	1159.623413085938	958.9076538085938	281.6761474609375	931.1942138671875	895.5593872070312	343.229736328125	915.4939575195312	828.8933715820312	401.8069152832031	1112.414916992188	847.0736694335938	262.3610534667969	745.4522094726562	912.6814575195312	244.9031066894531	822.6951293945312	883.2454833984375	299.3554077148438	815.6002197265625	831.2926635742188	359.5945739746094	1727.87060546875	1207.65771484375	192.8440704345703	1702.443237304688	1069.415405273438	184.0832977294922	1704.657592773438	1167.3486328125	366.6053466796875	1720.600830078125	1063.60888671875	401.4809265136719	959.0366821289062	1305.421875	332.8666076660156	956.5909423828125	938.687255859375	239.0296020507812	987.7188720703125	1025.306640625	275.8402099609375	1002.283325195312	1257.789794921875	371.1948852539062	515.5191650390625	1250.376220703125	394.5879516601562	651.6901245117188	1287.346801757812	478.0723876953125	39.82633209228516	1227.24462890625	456.5491333007812	285.1346130371094	1254.213745117188	253.4510040283203	39.29235458374023	1179.220703125	311.1876831054688	48.29815673828125	1159.418701171875	356.2567443847656	37.68862915039062	1258.33251953125	542.8134765625	47.71153259277344	1169.439575195312	359.8373413085938	521.7801513671875	986.0078735351562	321.6265258789062	788.4330444335938	942.0120849609375	489.0196228027344	44.3682746887207	1000.810241699219	390.7273864746094	400.4425964355469	983.5803833007812	260.0241394042969	42.15673065185547	1055.124145507812	325.1075134277344	44.36789703369141	1081.937133789062	338.3338012695312	42.96385192871094	987.1380004882812	546.7708740234375	46.23195648193359	1043.023681640625	
